<svg xmlns="http://www.w3.org/2000/svg" viewBox="0 0 463 463" style="enable-background:new 0 0 463 463" xml:space="preserve"><path d="M455 63.5c0-17.369-14.131-31.5-31.5-31.5H415v-8.5c0-8.547-6.953-15.5-15.5-15.5H193.141c-4.31-4.899-10.619-8-17.641-8h-32c-7.023 0-13.332 3.101-17.641 8H103.5C94.953 8 88 14.953 88 23.5v17.734c-9.29 3.138-16 11.93-16 22.266V208H55.5c-8.547 0-15.5 6.953-15.5 15.5v32c0 8.547 6.953 15.5 15.5 15.5H72v24.5c0 12.958 10.542 23.5 23.5 23.5H224v9h-.5c-5.827 0-10.908 3.235-13.555 8H93.832c-1.872-4.574-5.865-8.079-10.969-9.213l-56-12.444a15.426 15.426 0 0 0-13.061 3.04A15.425 15.425 0 0 0 8 329.473v76.054a15.43 15.43 0 0 0 5.801 12.091 15.42 15.42 0 0 0 13.061 3.04l56-12.444c5.105-1.135 9.098-4.639 10.969-9.213h116.113c2.647 4.765 7.728 8 13.555 8h.5v9h-32.5c-12.958 0-23.5 10.542-23.5 23.5v16a7.5 7.5 0 0 0 7.5 7.5h168a7.5 7.5 0 0 0 7.5-7.5v-16c0-12.958-10.542-23.5-23.5-23.5H295v-9h.5c8.547 0 15.5-6.953 15.5-15.5V391h16.5c12.958 0 23.5-10.542 23.5-23.5S340.458 344 327.5 344H311v-.5c0-8.547-6.953-15.5-15.5-15.5h-.5v-9h128.5c12.958 0 23.5-10.542 23.5-23.5v-67.054c4.971-5.571 8-12.91 8-20.946v-144zm-15 0v144c0 9.098-7.402 16.5-16.5 16.5h-160c-9.098 0-16.5-7.402-16.5-16.5v-144c0-9.098 7.402-16.5 16.5-16.5h160c9.098 0 16.5 7.402 16.5 16.5zM399.5 23a.5.5 0 0 1 .5.5V32H263.5c-8.036 0-15.375 3.029-20.946 8H199V23.5c0-.168-.009-.333-.013-.5H399.5zm-256-8h32c4.687 0 8.5 3.813 8.5 8.5V40h-49V23.5c0-4.687 3.813-8.5 8.5-8.5zm-40 8h16.513c-.004.167-.013.332-.013.5V40h-17V23.5a.5.5 0 0 1 .5-.5zm-48 233a.5.5 0 0 1-.5-.5v-32a.5.5 0 0 1 .5-.5H72v33H55.5zM95 351h113v33H95v-33zm-15 42.083a.503.503 0 0 1-.392.488l-56 12.444c-.07.015-.233.053-.421-.098-.187-.15-.187-.318-.187-.39v-76.054c0-.072 0-.24.187-.39a.47.47 0 0 1 .421-.098l56 12.444c.227.05.392.256.392.488v51.166zM336 439.5v8.5H183v-8.5c0-4.687 3.813-8.5 8.5-8.5h136c4.687 0 8.5 3.813 8.5 8.5zM280 416h-41v-9h41v9zm47.5-57c4.687 0 8.5 3.813 8.5 8.5s-3.813 8.5-8.5 8.5H311v-17h16.5zM296 343.5v48a.5.5 0 0 1-.5.5h-72a.5.5 0 0 1-.5-.5v-48a.5.5 0 0 1 .5-.5h72a.5.5 0 0 1 .5.5zM280 328h-41v-9h41v9zm143.5-24h-328c-4.687 0-8.5-3.813-8.5-8.5v-232c0-4.687 3.813-8.5 8.5-8.5h137.675A31.386 31.386 0 0 0 232 63.5v144c0 17.369 14.131 31.5 31.5 31.5h160c2.945 0 5.794-.415 8.5-1.175V295.5c0 4.687-3.813 8.5-8.5 8.5z"/><path d="M271.5 64a7.5 7.5 0 0 0-7.5 7.5v128a7.5 7.5 0 0 0 7.5 7.5h144a7.5 7.5 0 0 0 7.5-7.5v-128a7.5 7.5 0 0 0-7.5-7.5h-144zM400 135.5c0 31.154-25.346 56.5-56.5 56.5S287 166.654 287 135.5 312.346 79 343.5 79s56.5 25.346 56.5 56.5zM299.759 79c-8.761 6.798-15.915 15.573-20.759 25.665V79h20.759zM279 192v-25.665c4.844 10.092 11.998 18.867 20.759 25.665H279zm108.241 0c8.761-6.798 15.915-15.573 20.759-25.665V192h-20.759zM408 79v25.665C403.156 94.573 396.002 85.798 387.241 79H408z"/><path d="M343.5 175c21.78 0 39.5-17.72 39.5-39.5S365.28 96 343.5 96 304 113.72 304 135.5s17.72 39.5 39.5 39.5zm0-64c13.509 0 24.5 10.991 24.5 24.5S357.009 160 343.5 160 319 149.009 319 135.5s10.991-24.5 24.5-24.5z"/><path d="M343.5 150c7.995 0 14.5-6.505 14.5-14.5s-6.505-14.5-14.5-14.5-14.5 6.505-14.5 14.5 6.505 14.5 14.5 14.5zM183.5 88h-48c-8.547 0-15.5 6.953-15.5 15.5v64c0 8.547 6.953 15.5 15.5 15.5h48c8.547 0 15.5-6.953 15.5-15.5v-64c0-8.547-6.953-15.5-15.5-15.5zm.5 79.5a.5.5 0 0 1-.5.5h-48a.5.5 0 0 1-.5-.5v-64a.5.5 0 0 1 .5-.5h48a.5.5 0 0 1 .5.5v64zM159.5 200c-21.78 0-39.5 17.72-39.5 39.5s17.72 39.5 39.5 39.5 39.5-17.72 39.5-39.5-17.72-39.5-39.5-39.5zm0 64c-13.509 0-24.5-10.991-24.5-24.5s10.991-24.5 24.5-24.5 24.5 10.991 24.5 24.5-10.991 24.5-24.5 24.5z"/></svg>
